<?xml version="1.0" encoding="UTF-8" standalone="no"?>
<svg width="512" height="512" viewBox="0 0 512 512" fill="none" xmlns="http://www.w3.org/2000/svg">
  <!-- Background circle -->
  <circle cx="256" cy="256" r="240" fill="#001F3F"/>
  
  <!-- Shield outline -->
  <path d="M256 96C256 96 352 128 416 128V256C416 320 368 384 256 416C144 384 96 320 96 256V128C160 128 256 96 256 96Z" stroke="#FFD700" stroke-width="16" fill="none"/>
  
  <!-- Shield inner -->
  <path d="M256 128C256 128 336 152 384 152V256C384 304 344 352 256 384C168 352 128 304 128 256V152C176 152 256 128 256 128Z" fill="#4A90E2" fill-opacity="0.3"/>
  
  <!-- Face outline -->
  <circle cx="256" cy="240" r="80" stroke="#FFD700" stroke-width="8" fill="none"/>
  
  <!-- Eyes -->
  <circle cx="224" cy="224" r="12" fill="#FFD700"/>
  <circle cx="288" cy="224" r="12" fill="#FFD700"/>
  
  <!-- Scanning line -->
  <rect x="176" y="256" width="160" height="4" fill="#FFD700"/>
  
  <!-- Text -->
  <text x="256" y="352" font-family="Arial" font-size="32" font-weight="bold" fill="#FFD700" text-anchor="middle">NAFacial</text>
</svg>
